<?xml version="1.0" encoding="UTF-8"?>
<svg width="1156px" height="212px" viewBox="0 0 1156 212" version="1.1" xmlns="http://www.w3.org/2000/svg" xmlns:xlink="http://www.w3.org/1999/xlink">
    <title>180985658-d62c2dbe-5d75-42e5-86fa-1765ed15391f</title>
    <defs>
        <polygon id="path-1" points="0 0 61 0 61 61 0 61"></polygon>
    </defs>
    <g id="Page-1" stroke="none" stroke-width="1" fill="none" fill-rule="evenodd">
        <g id="180985658-d62c2dbe-5d75-42e5-86fa-1765ed15391f" transform="translate(0.199000, 0.494792)">
            <g id="Group" transform="translate(-0.000000, 17.933667)" fill="#000000" fill-rule="nonzero">
                <g id="Shape">
                    <path d="M0,0 L45.0208333,0 C58.2708333,0 70.7812493,2.26041733 82.5625,6.77083333 C94.3541667,11.2864587 104.666667,17.7812493 113.5,26.25 C122.333333,34.7083333 129.322916,44.875 134.479167,56.75 C139.645833,68.625 142.229167,82.0208333 142.229167,96.9375 C142.229167,107.802084 140.338541,118.9375 136.5625,130.354167 C132.781249,141.770833 126.656249,152.125 118.1875,161.416667 C109.729167,170.708333 98.7291667,178.348959 85.1875,184.333333 C71.6562493,190.322916 55.1354173,193.3125 35.625,193.3125 L0,193.3125 L0,0 Z M22.9166667,21.8333333 L22.9166667,171.229167 L42.25,171.229167 C53.1093747,171.229167 63.2343747,169.479167 72.625,165.979167 C82.0104173,162.479167 90.1562493,157.468751 97.0625,150.9375 C103.963541,144.395833 109.395833,136.572916 113.354167,127.458333 C117.3125,118.348959 119.291667,108.083333 119.291667,96.6666667 C119.291667,85.25 117.3125,74.9375 113.354167,65.7291667 C109.395833,56.5208333 103.963541,48.6562493 97.0625,42.125 C90.1562493,35.5833333 82.0104173,30.572916 72.625,27.0833333 C63.2343747,23.5833333 53.1093747,21.8333333 42.25,21.8333333 L22.9166667,21.8333333 Z"></path>
                </g>
            </g>
            <g id="Group" transform="translate(328.894432, 17.933667)" fill="#000000" fill-rule="nonzero">
                <g id="Path">
                    <polygon points="0 0 22.9166667 0 22.9166667 193.3125 0 193.3125"></polygon>
                </g>
            </g>
            <g id="Group" transform="translate(544.077079, 9.100333)" fill="#000000" fill-rule="nonzero">
                <g id="Path">
                    <path d="M0,0 C16.9270827,21.9166667 33.7708333,43.7864587 50.5208333,65.6041667 C67.2708333,87.4114587 84.114584,109.265625 101.0625,131.166667 C117.989584,109.265625 134.833333,87.4114587 151.583333,65.6041667 C168.343749,43.7864587 185.192708,21.9166667 202.125,0 L202.125,202.145833 L179.208333,202.145833 L179.208333,72.3541667 C179.385416,70.8854173 179.526041,69.4114587 179.625,67.9375 C179.718749,66.4687507 179.859375,64.994792 180.041667,63.5208333 C167.885416,81.5625 155,99.0989587 141.375,116.125 C127.75,133.156249 114.3125,150.322916 101.0625,167.625 C88.7291667,151.432292 76.3958333,135.328125 64.0625,119.3125 C51.7291667,103.286459 39.385416,87.177084 27.0416667,70.9791667 L22.0833333,63.5208333 C22.260416,64.994792 22.3958333,66.4687507 22.4791667,67.9375 C22.5729173,69.4114587 22.7187493,70.8854173 22.9166667,72.3541667 L22.9166667,202.145833 L0,202.145833 L0,0 Z"></path>
                </g>
            </g>
            <g id="Group" transform="translate(932.304637, 17.933667)" fill="#000000" fill-rule="nonzero">
                <g id="Path">
                    <polygon points="0 193.3125 0 0 119.020833 0 119.020833 21.8333333 22.9166667 21.8333333 22.9166667 85.0625 108.25 85.0625 108.25 106.875 22.9166667 106.875 22.9166667 171.5 122.875 171.5 122.875 193.3125"></polygon>
                </g>
            </g>
            <path d="M1125.17079,31.192708 L1118.82704,31.192708 L1118.82704,19.5520827 L1125.17079,19.5520827 C1129.926,19.5520827 1132.38433,21.6822907 1132.38433,25.3489573 C1132.38433,29.0208333 1129.926,31.192708 1125.17079,31.192708 Z M1137.85308,25.3489573 C1137.85308,18.885416 1133.09787,14.9635413 1125.42079,14.9635413 L1113.40517,14.9635413 L1113.40517,44.1614587 L1118.82704,44.1614587 L1118.82704,35.6562493 L1125.42079,35.6562493 C1125.79579,35.6562493 1126.17079,35.6562493 1126.54579,35.6093747 L1132.51454,44.1614587 L1138.35308,44.1614587 L1131.63433,34.567708 C1135.59787,33.0260413 1137.85308,29.7708333 1137.85308,25.3489573" id="Shape" fill="#000000" fill-rule="nonzero"></path>
            <g id="Clipped" transform="translate(1094.118708, 0.000000)">
                <mask id="mask-2" fill="white">
                    <use xlink:href="#path-1"></use>
                </mask>
                <g id="Path"></g>
                <path d="M30.5,55.7083333 C16.5989587,55.7083333 5.29166667,44.4010413 5.29166667,30.5 C5.29166667,16.5989573 16.5989587,5.29166667 30.5,5.29166667 C44.4010413,5.29166667 55.7083333,16.5989573 55.7083333,30.5 C55.7083333,44.4010413 44.4010413,55.7083333 30.5,55.7083333 Z M30.5,0 C13.682292,0 0,13.6822907 0,30.5 C0,47.317708 13.682292,61 30.5,61 C47.317708,61 61,47.317708 61,30.5 C61,13.6822907 47.317708,0 30.5,0" id="Shape" fill="#000000" fill-rule="nonzero" mask="url(#mask-2)"></path>
            </g>
        </g>
    </g>
</svg>